HIERARCHY
ROOT Hips
{
	OFFSET 0.000000 0.000000 0.000000
	CHANNELS 6 Xposition Yposition Zposition Xrotation Yrotation Zrotation
	JOINT LeftUpLeg_virtual
	{
		OFFSET 0.000000 0.000000 0.000000
		CHANNELS 3 Xrotation Yrotation Zrotation
		JOINT LeftUpLeg
		{
			OFFSET 15.427100 -6.655098 0.678600
			CHANNELS 3 Xrotation Yrotation Zrotation
			JOINT LeftLeg
			{
				OFFSET 4.081073 -39.591068 13.024000
				CHANNELS 3 Xrotation Yrotation Zrotation
				JOINT LeftFoot
				{
					OFFSET -4.081074 -37.707932 -15.979700
					CHANNELS 3 Xrotation Yrotation Zrotation
					JOINT LeftToeBase
					{
						OFFSET 5.346399 -15.068900 20.645000
						CHANNELS 3 Xrotation Yrotation Zrotation
						JOINT LeftToe_End
						{
							OFFSET 2.754700 0.931300 11.300900
							CHANNELS 3 Xrotation Yrotation Zrotation
							End Site
							{
								OFFSET 0 0 0
							}
						}
					}
				}
			}
		}
	}
	JOINT RightUpLeg_virtual
	{
		OFFSET 0.000000 0.000000 0.000000
		CHANNELS 3 Xrotation Yrotation Zrotation
		JOINT RightUpLeg
		{
			OFFSET -15.569500 -6.655098 0.678600
			CHANNELS 3 Xrotation Yrotation Zrotation
			JOINT RightLeg
			{
				OFFSET -4.081825 -39.591045 13.023800
				CHANNELS 3 Xrotation Yrotation Zrotation
				JOINT RightFoot
				{
					OFFSET 4.081824 -37.707954 -15.979600
					CHANNELS 3 Xrotation Yrotation Zrotation
					JOINT RightToeBase
					{
						OFFSET -5.346400 -15.068900 20.645000
						CHANNELS 3 Xrotation Yrotation Zrotation
						JOINT RightToe_End
						{
							OFFSET -2.754700 0.931300 11.300900
							CHANNELS 3 Xrotation Yrotation Zrotation
							End Site
							{
								OFFSET 0 0 0
							}
						}
					}
				}
			}
		}
	}
	JOINT Spine_virtual
	{
		OFFSET 0.000000 0.000000 0.000000
		CHANNELS 3 Xrotation Yrotation Zrotation
		JOINT Spine
		{
			OFFSET -0.279200 12.230698 -2.892100
			CHANNELS 3 Xrotation Yrotation Zrotation
			JOINT Spine1
			{
				OFFSET -0.232667 10.192268 -1.242267
				CHANNELS 3 Xrotation Yrotation Zrotation
				JOINT Spine1_split
				{
					OFFSET -0.232667 10.192268 -1.242267
					CHANNELS 3 Xrotation Yrotation Zrotation
					JOINT Spine2
					{
						OFFSET -0.232667 10.192268 -1.242267
						CHANNELS 3 Xrotation Yrotation Zrotation
						JOINT Neck_virtual
						{
							OFFSET 0.000000 0.000000 0.000000
							CHANNELS 3 Xrotation Yrotation Zrotation
							JOINT Neck
							{
								OFFSET -0.418800 17.814194 8.416900
								CHANNELS 3 Xrotation Yrotation Zrotation
								JOINT Head
								{
									OFFSET 0.000000 7.031097 3.806800
									CHANNELS 3 Xrotation Yrotation Zrotation
									JOINT HeadTop_End
									{
										OFFSET 0.000000 24.646606 12.978600
										CHANNELS 3 Xrotation Yrotation Zrotation
										End Site
										{
											OFFSET 0 0 0
										}
									}
								}
							}
						}
						JOINT LeftShoulder_virtual
						{
							OFFSET 0.000000 0.000000 0.000000
							CHANNELS 3 Xrotation Yrotation Zrotation
							JOINT LeftShoulder
							{
								OFFSET 8.476499 7.247704 -3.868750
								CHANNELS 3 Xrotation Yrotation Zrotation
								JOINT LeftShoulder_split
								{
									OFFSET 8.476499 7.247704 -3.868750
									CHANNELS 3 Xrotation Yrotation Zrotation
									JOINT LeftArm
									{
										OFFSET 9.308998 -2.777710 0.208600
										CHANNELS 3 Xrotation Yrotation Zrotation
										JOINT LeftForeArm
										{
											OFFSET 29.972298 0.000000 0.000000
											CHANNELS 3 Xrotation Yrotation Zrotation
											JOINT LeftHand
											{
												OFFSET 26.026505 0.000000 0.000000
												CHANNELS 3 Xrotation Yrotation Zrotation
												End Site
												{
													OFFSET 0 0 0
												}
											}
										}
									}
								}
							}
						}
						JOINT RightShoulder_virtual
						{
							OFFSET 0.000000 0.000000 0.000000
							CHANNELS 3 Xrotation Yrotation Zrotation
							JOINT RightShoulder
							{
								OFFSET -7.570500 7.247704 -3.868750
								CHANNELS 3 Xrotation Yrotation Zrotation
								JOINT RightShoulder_split
								{
									OFFSET -7.570500 7.247704 -3.868750
									CHANNELS 3 Xrotation Yrotation Zrotation
									JOINT RightArm
									{
										OFFSET -9.308998 -2.777710 0.208500
										CHANNELS 3 Xrotation Yrotation Zrotation
										JOINT RightForeArm
										{
											OFFSET -29.972300 0.000000 0.000000
											CHANNELS 3 Xrotation Yrotation Zrotation
											JOINT RightHand
											{
												OFFSET -26.026505 0.000000 0.000000
												CHANNELS 3 Xrotation Yrotation Zrotation
												End Site
												{
													OFFSET 0 0 0
												}
											}
										}
									}
								}
							}
						}
					}
				}
			}
		}
	}
}
MOTION
Frames: 9
Frame Time: 0.03333333
1.966655 49.587868 20.332354 0.000000 0.000000 0.000000 8.482263 5.452391 1.528086 -94.907862 -11.468111 14.933261 83.493482 -0.606443 -3.381924 11.319924 -5.376117 -10.455737 -3.876374 0.279777 0.251752 0.000000 0.000000 0.000000 8.276801 5.175084 1.484419 -95.384835 17.077973 -17.750697 85.186864 2.032400 1.961890 9.016549 -0.829498 11.657039 2.708601 0.922285 -0.360124 0.000000 0.000000 0.000000 8.875581 3.476579 1.136113 6.424202 -1.936815 -2.356803 15.233637 -1.221206 -0.749620 1.081451 0.524943 0.143640 0.000000 0.000000 0.000000 16.659357 -1.185340 -0.575303 -2.293036 -2.846099 -1.204924 -52.890693 2.121670 -7.938436 0.000000 0.000000 0.000000 16.012211 -1.419733 -0.404952 0.652003 -15.932232 4.449236 -3.994809 -4.865347 -1.693659 -61.238998 -27.747384 -15.783099 176.849211 -69.462416 178.561868 0.000000 0.000000 0.000000 14.885748 -1.815359 -0.540222 1.748974 14.410714 -3.297557 3.880424 0.498131 4.333104 -85.537294 29.602887 30.346397 -178.399883 53.797176 175.081791 0.000000 0.000000 0.000000 
1.956720 49.712914 20.239956 0.000000 0.000000 0.000000 8.895480 5.157314 1.338798 -95.138224 -11.756866 14.882156 83.074423 -0.700173 -3.283121 11.339052 -5.621836 -10.438226 -3.716791 0.301342 0.237934 0.000000 0.000000 0.000000 8.658276 4.934170 1.296892 -95.520831 16.886113 -17.519495 84.732581 1.984560 1.842005 8.851871 -0.803138 11.788936 2.890758 0.906016 -0.331430 0.000000 0.000000 0.000000 9.288340 3.476263 0.919555 6.316894 -1.933230 -2.352170 15.596295 -1.241583 -0.654720 0.786776 0.453622 0.127225 0.000000 0.000000 0.000000 16.948727 -1.121963 -0.563557 -0.197481 -2.964344 -1.226851 -51.752886 2.563059 -7.777425 0.000000 0.000000 0.000000 16.410998 -1.390425 -0.353173 0.635422 -14.887181 5.278367 -3.533171 -4.675419 -1.575476 -60.301302 -27.023807 -15.931061 177.368483 -68.709599 179.264530 0.000000 0.000000 0.000000 15.423547 -1.780767 -0.487568 1.467808 13.472575 -2.766969 3.254118 1.182682 4.155064 -83.988439 30.212621 29.523834 -178.336103 54.004427 175.258051 0.000000 0.000000 0.000000 
1.905278 49.807945 20.201540 0.000000 0.000000 0.000000 9.362286 4.864016 1.213419 -95.353990 -11.968545 14.745292 82.635262 -0.707049 -3.202051 11.346036 -5.798801 -10.376848 -3.616433 0.312010 0.272730 0.000000 0.000000 0.000000 9.113839 4.765111 1.161625 -95.672010 16.752917 -17.349895 84.244550 1.899988 1.770283 8.704774 -0.833707 11.838011 2.983192 0.889465 -0.248969 0.000000 0.000000 0.000000 9.740528 3.589578 0.692872 6.280289 -1.937240 -2.321581 16.122354 -1.201966 -0.626810 0.598118 0.564222 0.239875 0.000000 0.000000 0.000000 17.316225 -1.018825 -0.608051 2.629880 -3.037752 -1.438984 -50.306580 2.713379 -7.823591 0.000000 0.000000 0.000000 17.004362 -1.320992 -0.377862 0.657120 -14.253351 6.155980 -2.695620 -4.928030 -1.487900 -57.449035 -25.572881 -15.926393 178.061502 -67.280143 -179.855492 0.000000 0.000000 0.000000 16.199867 -1.669474 -0.503388 1.181270 12.740141 -2.023448 2.886555 2.037715 4.044156 -81.025202 31.272257 28.263097 -178.287663 54.821035 175.447192 0.000000 0.000000 0.000000 
1.827615 49.828335 20.203215 0.000000 0.000000 0.000000 9.851752 4.601616 1.180930 -95.568219 -12.041974 14.574939 82.304189 -0.623906 -3.181160 11.344163 -5.842308 -10.257802 -3.586487 0.315271 0.345413 0.000000 0.000000 0.000000 9.613786 4.701366 1.109956 -95.876684 16.696191 -17.302297 83.835149 1.805666 1.758671 8.617740 -0.884305 11.843204 2.930077 0.873612 -0.142908 0.000000 0.000000 0.000000 10.178969 3.787245 0.515074 6.268528 -1.964995 -2.296752 16.632554 -1.136260 -0.662135 0.520082 0.553910 0.333782 0.000000 0.000000 0.000000 17.641542 -0.906878 -0.693650 5.667182 -3.039651 -1.840961 -48.924222 2.528015 -8.102495 0.000000 0.000000 0.000000 17.574845 -1.233955 -0.476074 0.696125 -14.081189 6.840425 -1.661991 -5.685859 -1.513998 -53.165868 -24.146331 -15.645892 178.627629 -65.433007 -179.135549 0.000000 0.000000 0.000000 16.972170 -1.518572 -0.565024 0.960829 12.269027 -1.283897 2.633131 2.537507 3.960283 -77.143708 32.515327 26.581522 -178.346088 55.876756 175.739770 0.000000 0.000000 0.000000 
1.741378 49.783375 20.303459 0.000000 0.000000 0.000000 10.329515 4.446636 1.237991 -95.797986 -11.965259 14.440184 82.168084 -0.478814 -3.236859 11.309668 -5.716300 -10.116185 -3.557213 0.318100 0.421584 0.000000 0.000000 0.000000 10.131259 4.745474 1.142118 -96.158873 16.725629 -17.399057 83.579461 1.728391 1.814516 8.595734 -0.919492 11.848806 2.806179 0.863216 -0.049113 0.000000 0.000000 0.000000 10.589751 4.056465 0.424337 6.260495 -2.025600 -2.298542 16.932980 -1.091867 -0.730390 0.656359 0.595701 0.468049 0.000000 0.000000 0.000000 17.797231 -0.815000 -0.765325 8.294698 -2.950528 -2.339426 -47.887320 2.121386 -8.586373 0.000000 0.000000 0.000000 17.901506 -1.172836 -0.597129 0.740523 -14.455556 7.254224 -0.842840 -6.403389 -1.548675 -48.795616 -23.221998 -14.908356 178.894361 -63.794097 -178.770926 0.000000 0.000000 0.000000 17.476376 -1.377738 -0.627323 0.825833 12.068325 -0.804673 2.401350 2.636891 3.900536 -73.261354 33.593561 24.722382 -178.534766 56.506940 176.098642 0.000000 0.000000 0.000000 
1.680930 49.694103 20.438126 0.000000 0.000000 0.000000 10.775924 4.380161 1.347775 -96.051584 -11.766110 14.377608 82.222097 -0.303049 -3.354660 11.232933 -5.440322 -9.984663 -3.458364 0.328056 0.463047 0.000000 0.000000 0.000000 10.648726 4.848574 1.226934 -96.506489 16.820384 -17.605362 83.502218 1.687512 1.923516 8.611335 -0.909892 11.858430 2.710491 0.861729 0.011379 0.000000 0.000000 0.000000 10.994552 4.336423 0.433934 6.246283 -2.119261 -2.321976 16.858888 -1.101671 -0.798731 0.769776 0.448647 0.465633 0.000000 0.000000 0.000000 17.671240 -0.769382 -0.794120 10.029551 -2.825554 -2.829024 -47.338416 1.477961 -9.224000 0.000000 0.000000 0.000000 17.794386 -1.143181 -0.698023 0.791907 -15.174425 7.376345 -0.153244 -6.594155 -1.387639 -45.700137 -23.020686 -13.467605 178.907926 -62.910079 -178.666697 0.000000 0.000000 0.000000 17.500601 -1.285825 -0.659926 0.790675 12.030489 -0.833727 2.256427 2.644239 3.627370 -70.513083 34.120056 23.266151 -178.848367 56.218747 176.518343 0.000000 0.000000 0.000000 
1.667127 49.569366 20.601982 0.000000 0.000000 0.000000 11.157576 4.397889 1.464912 -96.317880 -11.517158 14.399907 82.389020 -0.151733 -3.485960 11.107985 -5.112756 -9.947973 -3.332514 0.344230 0.480024 0.000000 0.000000 0.000000 11.116438 4.978389 1.324663 -96.845088 16.944012 -17.883426 83.560828 1.671314 2.073780 8.663414 -0.851027 11.864553 2.637652 0.868535 0.025322 0.000000 0.000000 0.000000 11.387331 4.538675 0.541397 6.219055 -2.228373 -2.355529 16.304587 -1.172922 -0.833026 0.801717 0.200936 0.506576 0.000000 0.000000 0.000000 17.147504 -0.776121 -0.761395 10.585377 -2.682383 -3.212236 -47.135590 0.698950 -9.951736 0.000000 0.000000 0.000000 17.195042 -1.161546 -0.741845 0.852365 -15.978768 7.229218 -0.098656 -6.025818 -1.327777 -44.485432 -23.493539 -11.275030 178.791745 -62.935412 -178.700725 0.000000 0.000000 0.000000 16.920856 -1.267102 -0.641848 0.856795 12.111767 -1.388981 2.103785 2.529341 3.180839 -69.583645 33.906196 22.774291 -179.134989 55.072515 176.867612 0.000000 0.000000 0.000000 
1.702062 49.450813 20.773743 0.000000 0.000000 0.000000 11.421874 4.456316 1.545803 -96.559825 -11.311067 14.493120 82.627373 -0.052399 -3.581144 11.014063 -4.826177 -10.027517 -3.244461 0.357644 0.483315 0.000000 0.000000 0.000000 11.484601 5.034529 1.408843 -97.124122 17.055186 -18.155780 83.691681 1.660607 2.234674 8.763765 -0.759718 11.868344 2.551772 0.881339 -0.002322 0.000000 0.000000 0.000000 11.778597 4.599686 0.717738 6.203408 -2.328733 -2.382785 15.253018 -1.290551 -0.829477 0.845914 -0.036926 0.528625 0.000000 0.000000 0.000000 16.170930 -0.826808 -0.680565 9.965932 -2.526489 -3.427480 -46.992040 -0.097929 -10.655139 0.000000 0.000000 0.000000 16.080004 -1.217843 -0.734117 0.906491 -16.620463 6.809706 -0.319568 -5.138618 -1.295659 -44.956121 -24.416620 -8.768468 178.630661 -63.385235 -178.843094 0.000000 0.000000 0.000000 15.744933 -1.306330 -0.577818 1.001678 12.248296 -2.407081 1.961087 2.349060 2.713975 -70.421552 32.756542 23.508196 -179.310511 53.503238 177.062737 0.000000 0.000000 0.000000 
1.774896 49.344997 20.886400 0.000000 0.000000 0.000000 11.526310 4.515721 1.570014 -96.724829 -11.208923 14.608866 82.857052 -0.013390 -3.605280 11.011807 -4.657547 -10.170707 -3.209754 0.358944 0.483369 0.000000 0.000000 0.000000 11.692471 4.986342 1.462072 -97.285656 17.107520 -18.348429 83.802760 1.637184 2.367070 8.877836 -0.663737 11.855866 2.423191 0.890457 -0.061790 0.000000 0.000000 0.000000 12.108740 4.482922 0.943329 6.208168 -2.380274 -2.385948 13.774515 -1.411768 -0.806936 0.796491 -0.323723 0.392540 0.000000 0.000000 0.000000 14.751983 -0.897143 -0.585603 8.449917 -2.361093 -3.473955 -46.517806 -0.872759 -11.266801 0.000000 0.000000 0.000000 14.524288 -1.280557 -0.705596 0.928127 -16.854627 6.124949 -0.883305 -4.342122 -1.548211 -46.224190 -25.631436 -6.440828 178.518496 -63.627911 -179.046415 0.000000 0.000000 0.000000 14.088758 -1.367355 -0.501307 1.201554 12.385685 -3.643077 2.015443 2.150979 2.222455 -72.322927 30.712915 25.262380 -179.346779 51.967952 177.135355 0.000000 0.000000 0.000000 
